<svg version="1" xmlns="http://www.w3.org/2000/svg" width="682.667" height="682.667" viewBox="0 0 512.000000 512.000000"><path d="M67.8 1.1C51.5 3.5 36.6 11.2 23.9 23.9 11.1 36.8 3.9 50.6 1.1 68c-1.5 9-1.5 367 0 376 2.8 17.4 10 31.2 22.8 44.1 12.9 12.8 26.7 20 44.1 22.8 9 1.5 367 1.5 376 0 17.4-2.8 31.2-10 44.1-22.8 13-13 20.4-27.4 22.9-44.7 1.3-9.4 1.3-365.4 0-374.8-2.5-17.3-9.9-31.7-22.9-44.7-13-13-27.4-20.4-44.7-22.9-8.5-1.2-367.3-1.1-375.6.1zm379.1 6.4c28.8 6 51.6 28.8 57.6 57.6 2.2 10.6 2.2 371.2 0 381.8-6 28.8-28.8 51.6-57.6 57.6-10.6 2.2-371.2 2.2-381.8 0-28.8-6-51.6-28.8-57.6-57.6-2.2-10.6-2.2-371.2 0-381.8 6-28.4 28.6-51.4 56.9-57.6 9.6-2.1 372.5-2.1 382.5 0z"/><path d="M241 9.1c-86.5 4.5-166.2 56.4-205.8 134-42.9 84.4-33.9 186.4 23.2 261.3 47.1 61.9 119 97.6 196.6 97.6 68.1 0 130-26.2 177.5-75.1 47.2-48.7 71.4-111.3 69.2-179.4-1.2-37.4-8.8-68-25.1-101.2C432.8 57.2 341.2 3.9 241 9.1zm50.5 31.8c31.4 5.6 59.1 16.6 84.6 33.7 90.6 60.6 122.5 179.3 74.4 276.3-22 44.2-54.9 77.3-98 98.9-115.5 57.7-254.9 3.1-301-117.9-9.3-24.3-13.6-48.2-13.6-76.4 0-28.4 4.8-54.5 14.6-79.1C82.4 100.8 149.9 48.8 231 39c13.2-1.5 46.9-.5 60.5 1.9z"/><path d="M228.5 59.6C201 63.3 171.6 74.1 149 88.7c-24.9 16.2-47.9 39.5-62.4 63.4-46.5 76.7-36.1 175 25.4 239.3 53.3 55.7 132.1 75.5 205.4 51.5 103-33.7 159.5-145.9 125.5-249.3-9.7-29.5-25.7-55.6-47.8-77.7-31.4-31.3-70.7-50.7-114.4-56.4-14.3-1.8-38.5-1.8-52.2.1zm59 4.7c47.3 9 86.7 31.7 116.3 67.2 33.2 39.7 49.6 93 44.1 143.3-8.2 75.7-58.3 138.9-129.5 163.5-110.3 38.1-229.2-29.6-252.9-144C48.1 210.4 89 124.1 165.1 84c19.3-10.1 42-17.5 63.3-20.5 13-1.8 47.6-1.4 59.1.8z"/><path d="M253.3 114.3c-5.2 7.6-5.5 10.9-1.3 16.2 3.4 4.3 3.7 5.5 1.3 5.5-1 0-17.1.7-35.8 1.5-18.7.7-47.4 1.9-63.8 2.6l-29.8 1.1-2.4-2.6c-2.8-3-6.5-3.4-8.8-.8-3.1 3.4-1.6 8.3 2.9 9.6 1.5.5 3.1-.1 5.1-1.8l3-2.5 14.9 1c8.2.6 15 1.2 15.1 1.3.1.1-11.1 37.6-24.9 83.4l-25.2 83.1-6.6.3-6.5.3 10 5.1c17.9 9.2 34.8 13.4 53.9 13.4 20.6 0 37.2-4 55-13.3l10-5.2-6.2-.3c-5.9-.3-6.1-.4-7.1-3.5-1.8-5.4-48.2-159.1-48.7-161.2-.5-2-.1-2 45.3 1.2 25.2 1.7 45.9 3.2 46.1 3.2 1.2.3-.3 4.2-2.3 6.1-2.2 2.1-2.5 3.2-2.5 9.5 0 6.4.3 7.5 2.5 9.7l2.5 2.6-.2 93.4-.3 93.3-3.2 6.6c-6 12.2-17 19.5-33.6 22.3-8.7 1.4-12.7 3.4-12.7 6.3 0 1.1 10.2 1.3 59 1.3 33.8 0 59-.4 59-.9s-.8-1.8-1.7-3c-1.4-1.6-4-2.6-10.3-3.7-11.8-2-16.9-3.9-23.3-8.4-6.2-4.4-10.9-11-13.4-18.5-1.6-4.5-1.8-13.5-2.1-96.3l-.3-91.3 2.6-3c2.2-2.7 2.5-4 2.5-10.8 0-7-.3-8-2.5-10.1-5.4-5.1-5.5-5.1 29.5-7.5 11.8-.8 29.1-1.9 38.3-2.6 9.2-.6 17.1-.9 17.4-.6.3.4-10.6 37.7-24.3 82.9l-25 82.3-6.4.5-6.5.5 6.5 3.6c16.6 9.4 32.9 13.9 52.6 14.6 24.6 1 44.1-3.8 64.4-15.6l4.5-2.6-5.9-.5-6-.5-24.8-82C369.2 184.4 358 147 358 146.4c0-.7 6.1-1.5 16.8-2.2 13.5-.9 16.9-.9 17.7.2.6.7 2.1 1.8 3.4 2.5 2 1.1 2.7 1 5-.7 3.2-2.4 3.7-4.6 1.7-7.7-2.3-3.4-6.8-3.4-9.3.1l-1.9 2.6-30-1.1c-60-2.3-99.8-4.2-100.3-4.7-.3-.3 0-1.3.7-2.2 6.3-8.8 6.5-10.1 1.6-17.3-5.8-8.6-5.4-8.5-10.1-1.6zM179.8 227c13.2 43.7 24.4 80.7 24.7 82.2l.7 2.8H155c-47.4 0-50.2-.1-49.5-1.8.3-.9 11.4-37.5 24.6-81.2 27.6-91.2 24.8-82.4 25.3-81.9.2.2 11.2 36.2 24.4 79.9zm225.8 82.7l.6 2.3H356c-47.3 0-50.1-.1-49.6-1.8.3-.9 11.3-37.5 24.6-81.2 13.2-43.7 24.3-80.2 24.6-81 .4-1.1 45 143 50 161.7z"/></svg>